<?xml version="1.0" standalone="no"?>
<!DOCTYPE svg PUBLIC "-//W3C//DTD SVG 20010904//EN"
 "http://www.w3.org/TR/2001/REC-SVG-20010904/DTD/svg10.dtd">
<svg version="1.0" xmlns="http://www.w3.org/2000/svg"
 width="128.000000pt" height="128.000000pt" viewBox="0 0 128.000000 128.000000"
 preserveAspectRatio="xMidYMid meet">
<metadata>
Created by potrace 1.14, written by Peter Selinger 2001-2017
</metadata>
<g transform="translate(0.000000,128.000000) scale(0.100000,-0.100000)"
fill="#000000" stroke="none">
<path d="M415 1250 c-61 -12 -150 -55 -204 -97 -92 -72 -153 -173 -175 -293
-16 -85 -13 -398 4 -470 24 -104 83 -197 162 -259 29 -22 58 -45 65 -51 7 -5
14 -10 16 -10 3 0 22 -8 43 -17 22 -9 46 -18 54 -19 8 -2 31 -6 50 -10 19 -4
46 -6 59 -5 16 2 21 -1 16 -10 -6 -8 -4 -10 6 -3 22 14 49 15 71 3 12 -6 18
-7 14 -1 -8 13 82 12 108 0 11 -6 16 -6 13 -1 -4 6 22 10 61 10 77 1 94 4 104
18 5 6 8 4 8 -5 0 -11 2 -12 8 -3 5 7 20 14 35 15 15 1 27 6 27 10 0 4 3 7 8
6 8 -2 66 27 90 46 51 40 122 121 149 172 46 86 53 142 50 394 -4 248 -7 263
-75 370 -34 54 -116 131 -170 159 -94 50 -119 54 -342 56 -118 2 -233 -1 -255
-5z"/>
</g>
</svg>
